<svg width="1356" height="672" viewbox = "0 0 1356 672"  xmlns="http://www.w3.org/2000/svg">

<!--
<json>
{
    "glyph": "0221,0333,0333,0220,0220,0220,0220,0220,0220,0334,0220,0220,0220,0220,0220,0220,0334,0220,0220,0220,0220,0220,0220,0220,0220,0220,0220,0220,0220,0220,0220,0220,0220,0334,0220,0220,0220,0220,0220,0220,0334,0220,0220,0220,0220,0220,0220,0220,0220,0220,0220,0332,0332,",
    "unit": 35.04938994813922,
    "x0": 683,
    "y0": 250,
    "x0rel": 0.1426558353055001,
    "y0rel": -2.453680367254602,
    "imgurl": "",
    "imgw": 2,
    "imgleft": -1.5,
    "imgtop": -1
}
</json>
-->
    <circle cx="683" cy = "250" r = "2.1905868717587014" stroke = "#000000" stroke-width = "2" fill = "#000000" />
    <line x1="683" y1="250" x2="689" y2="244" style="stroke:#000000;stroke-width:2" />
    <line x1="683" y1="250" x2="689" y2="256" style="stroke:#000000;stroke-width:2" />
    <line x1="683" y1="250" x2="677" y2="256" style="stroke:#000000;stroke-width:2" />
    <line x1="683" y1="250" x2="677" y2="244" style="stroke:#000000;stroke-width:2" />
    <line x1="753" y1="250" x2="757" y2="250" style="stroke:#000000;stroke-width:2" />
    <line x1="753" y1="250" x2="749" y2="250" style="stroke:#000000;stroke-width:2" />
    <line x1="753" y1="250" x2="753" y2="215" style="stroke:#000000;stroke-width:2" />
    <line x1="753" y1="215" x2="757" y2="215" style="stroke:#000000;stroke-width:2" />
    <line x1="753" y1="215" x2="749" y2="215" style="stroke:#000000;stroke-width:2" />
    <line x1="753" y1="215" x2="753" y2="180" style="stroke:#000000;stroke-width:2" />
    <line x1="753" y1="180" x2="757" y2="180" style="stroke:#000000;stroke-width:2" />
    <line x1="753" y1="180" x2="749" y2="180" style="stroke:#000000;stroke-width:2" />
    <line x1="753" y1="180" x2="753" y2="145" style="stroke:#000000;stroke-width:2" />
    <line x1="753" y1="145" x2="757" y2="145" style="stroke:#000000;stroke-width:2" />
    <line x1="753" y1="145" x2="749" y2="145" style="stroke:#000000;stroke-width:2" />
    <line x1="753" y1="145" x2="753" y2="110" style="stroke:#000000;stroke-width:2" />
    <line x1="753" y1="110" x2="757" y2="110" style="stroke:#000000;stroke-width:2" />
    <line x1="753" y1="110" x2="749" y2="110" style="stroke:#000000;stroke-width:2" />
    <line x1="753" y1="110" x2="753" y2="75" style="stroke:#000000;stroke-width:2" />
    <line x1="753" y1="75" x2="757" y2="75" style="stroke:#000000;stroke-width:2" />
    <line x1="753" y1="75" x2="749" y2="75" style="stroke:#000000;stroke-width:2" />
    <line x1="753" y1="75" x2="753" y2="40" style="stroke:#000000;stroke-width:2" />
    <line x1="753" y1="40" x2="753" y2="35" style="stroke:#000000;stroke-width:2" />
    <line x1="753" y1="40" x2="753" y2="44" style="stroke:#000000;stroke-width:2" />
    <line x1="753" y1="40" x2="718" y2="40" style="stroke:#000000;stroke-width:2" />
    <line x1="718" y1="40" x2="718" y2="35" style="stroke:#000000;stroke-width:2" />
    <line x1="718" y1="40" x2="718" y2="44" style="stroke:#000000;stroke-width:2" />
    <line x1="718" y1="40" x2="683" y2="40" style="stroke:#000000;stroke-width:2" />
    <line x1="683" y1="40" x2="683" y2="35" style="stroke:#000000;stroke-width:2" />
    <line x1="683" y1="40" x2="683" y2="44" style="stroke:#000000;stroke-width:2" />
    <line x1="683" y1="40" x2="648" y2="40" style="stroke:#000000;stroke-width:2" />
    <line x1="648" y1="40" x2="648" y2="35" style="stroke:#000000;stroke-width:2" />
    <line x1="648" y1="40" x2="648" y2="44" style="stroke:#000000;stroke-width:2" />
    <line x1="648" y1="40" x2="613" y2="40" style="stroke:#000000;stroke-width:2" />
    <line x1="613" y1="40" x2="613" y2="35" style="stroke:#000000;stroke-width:2" />
    <line x1="613" y1="40" x2="613" y2="44" style="stroke:#000000;stroke-width:2" />
    <line x1="613" y1="40" x2="578" y2="40" style="stroke:#000000;stroke-width:2" />
    <line x1="578" y1="40" x2="578" y2="35" style="stroke:#000000;stroke-width:2" />
    <line x1="578" y1="40" x2="578" y2="44" style="stroke:#000000;stroke-width:2" />
    <line x1="578" y1="40" x2="543" y2="40" style="stroke:#000000;stroke-width:2" />
    <line x1="543" y1="40" x2="538" y2="40" style="stroke:#000000;stroke-width:2" />
    <line x1="543" y1="40" x2="547" y2="40" style="stroke:#000000;stroke-width:2" />
    <line x1="543" y1="40" x2="543" y2="75" style="stroke:#000000;stroke-width:2" />
    <line x1="543" y1="75" x2="538" y2="75" style="stroke:#000000;stroke-width:2" />
    <line x1="543" y1="75" x2="547" y2="75" style="stroke:#000000;stroke-width:2" />
    <line x1="543" y1="75" x2="543" y2="110" style="stroke:#000000;stroke-width:2" />
    <line x1="543" y1="110" x2="538" y2="110" style="stroke:#000000;stroke-width:2" />
    <line x1="543" y1="110" x2="547" y2="110" style="stroke:#000000;stroke-width:2" />
    <line x1="543" y1="110" x2="543" y2="145" style="stroke:#000000;stroke-width:2" />
    <line x1="543" y1="145" x2="538" y2="145" style="stroke:#000000;stroke-width:2" />
    <line x1="543" y1="145" x2="547" y2="145" style="stroke:#000000;stroke-width:2" />
    <line x1="543" y1="145" x2="543" y2="180" style="stroke:#000000;stroke-width:2" />
    <line x1="543" y1="180" x2="538" y2="180" style="stroke:#000000;stroke-width:2" />
    <line x1="543" y1="180" x2="547" y2="180" style="stroke:#000000;stroke-width:2" />
    <line x1="543" y1="180" x2="543" y2="215" style="stroke:#000000;stroke-width:2" />
    <line x1="543" y1="215" x2="538" y2="215" style="stroke:#000000;stroke-width:2" />
    <line x1="543" y1="215" x2="547" y2="215" style="stroke:#000000;stroke-width:2" />
    <line x1="543" y1="215" x2="543" y2="250" style="stroke:#000000;stroke-width:2" />
    <line x1="543" y1="250" x2="538" y2="250" style="stroke:#000000;stroke-width:2" />
    <line x1="543" y1="250" x2="547" y2="250" style="stroke:#000000;stroke-width:2" />
    <line x1="543" y1="250" x2="543" y2="285" style="stroke:#000000;stroke-width:2" />
    <line x1="543" y1="285" x2="538" y2="285" style="stroke:#000000;stroke-width:2" />
    <line x1="543" y1="285" x2="547" y2="285" style="stroke:#000000;stroke-width:2" />
    <line x1="543" y1="285" x2="543" y2="320" style="stroke:#000000;stroke-width:2" />
    <line x1="543" y1="320" x2="538" y2="320" style="stroke:#000000;stroke-width:2" />
    <line x1="543" y1="320" x2="547" y2="320" style="stroke:#000000;stroke-width:2" />
    <line x1="543" y1="320" x2="543" y2="355" style="stroke:#000000;stroke-width:2" />
    <line x1="543" y1="355" x2="538" y2="355" style="stroke:#000000;stroke-width:2" />
    <line x1="543" y1="355" x2="547" y2="355" style="stroke:#000000;stroke-width:2" />
    <line x1="543" y1="355" x2="543" y2="390" style="stroke:#000000;stroke-width:2" />
    <line x1="543" y1="390" x2="538" y2="390" style="stroke:#000000;stroke-width:2" />
    <line x1="543" y1="390" x2="547" y2="390" style="stroke:#000000;stroke-width:2" />
    <line x1="543" y1="390" x2="543" y2="425" style="stroke:#000000;stroke-width:2" />
    <line x1="543" y1="425" x2="538" y2="425" style="stroke:#000000;stroke-width:2" />
    <line x1="543" y1="425" x2="547" y2="425" style="stroke:#000000;stroke-width:2" />
    <line x1="543" y1="425" x2="543" y2="460" style="stroke:#000000;stroke-width:2" />
    <line x1="543" y1="460" x2="538" y2="460" style="stroke:#000000;stroke-width:2" />
    <line x1="543" y1="460" x2="547" y2="460" style="stroke:#000000;stroke-width:2" />
    <line x1="543" y1="460" x2="543" y2="495" style="stroke:#000000;stroke-width:2" />
    <line x1="543" y1="495" x2="538" y2="495" style="stroke:#000000;stroke-width:2" />
    <line x1="543" y1="495" x2="547" y2="495" style="stroke:#000000;stroke-width:2" />
    <line x1="543" y1="495" x2="543" y2="530" style="stroke:#000000;stroke-width:2" />
    <line x1="543" y1="530" x2="538" y2="530" style="stroke:#000000;stroke-width:2" />
    <line x1="543" y1="530" x2="547" y2="530" style="stroke:#000000;stroke-width:2" />
    <line x1="543" y1="530" x2="543" y2="565" style="stroke:#000000;stroke-width:2" />
    <line x1="543" y1="565" x2="538" y2="565" style="stroke:#000000;stroke-width:2" />
    <line x1="543" y1="565" x2="547" y2="565" style="stroke:#000000;stroke-width:2" />
    <line x1="543" y1="565" x2="543" y2="600" style="stroke:#000000;stroke-width:2" />
    <line x1="543" y1="600" x2="543" y2="605" style="stroke:#000000;stroke-width:2" />
    <line x1="543" y1="600" x2="543" y2="596" style="stroke:#000000;stroke-width:2" />
    <line x1="543" y1="600" x2="578" y2="600" style="stroke:#000000;stroke-width:2" />
    <line x1="578" y1="600" x2="578" y2="605" style="stroke:#000000;stroke-width:2" />
    <line x1="578" y1="600" x2="578" y2="596" style="stroke:#000000;stroke-width:2" />
    <line x1="578" y1="600" x2="613" y2="600" style="stroke:#000000;stroke-width:2" />
    <line x1="613" y1="600" x2="613" y2="605" style="stroke:#000000;stroke-width:2" />
    <line x1="613" y1="600" x2="613" y2="596" style="stroke:#000000;stroke-width:2" />
    <line x1="613" y1="600" x2="648" y2="600" style="stroke:#000000;stroke-width:2" />
    <line x1="648" y1="600" x2="648" y2="605" style="stroke:#000000;stroke-width:2" />
    <line x1="648" y1="600" x2="648" y2="596" style="stroke:#000000;stroke-width:2" />
    <line x1="648" y1="600" x2="683" y2="600" style="stroke:#000000;stroke-width:2" />
    <line x1="683" y1="600" x2="683" y2="605" style="stroke:#000000;stroke-width:2" />
    <line x1="683" y1="600" x2="683" y2="596" style="stroke:#000000;stroke-width:2" />
    <line x1="683" y1="600" x2="718" y2="600" style="stroke:#000000;stroke-width:2" />
    <line x1="718" y1="600" x2="718" y2="605" style="stroke:#000000;stroke-width:2" />
    <line x1="718" y1="600" x2="718" y2="596" style="stroke:#000000;stroke-width:2" />
    <line x1="718" y1="600" x2="753" y2="600" style="stroke:#000000;stroke-width:2" />
    <line x1="753" y1="600" x2="757" y2="600" style="stroke:#000000;stroke-width:2" />
    <line x1="753" y1="600" x2="749" y2="600" style="stroke:#000000;stroke-width:2" />
    <line x1="753" y1="600" x2="753" y2="565" style="stroke:#000000;stroke-width:2" />
    <line x1="753" y1="565" x2="757" y2="565" style="stroke:#000000;stroke-width:2" />
    <line x1="753" y1="565" x2="749" y2="565" style="stroke:#000000;stroke-width:2" />
    <line x1="753" y1="565" x2="753" y2="530" style="stroke:#000000;stroke-width:2" />
    <line x1="753" y1="530" x2="757" y2="530" style="stroke:#000000;stroke-width:2" />
    <line x1="753" y1="530" x2="749" y2="530" style="stroke:#000000;stroke-width:2" />
    <line x1="753" y1="530" x2="753" y2="495" style="stroke:#000000;stroke-width:2" />
    <line x1="753" y1="495" x2="757" y2="495" style="stroke:#000000;stroke-width:2" />
    <line x1="753" y1="495" x2="749" y2="495" style="stroke:#000000;stroke-width:2" />
    <line x1="753" y1="495" x2="753" y2="460" style="stroke:#000000;stroke-width:2" />
    <line x1="753" y1="460" x2="757" y2="460" style="stroke:#000000;stroke-width:2" />
    <line x1="753" y1="460" x2="749" y2="460" style="stroke:#000000;stroke-width:2" />
    <line x1="753" y1="460" x2="753" y2="425" style="stroke:#000000;stroke-width:2" />
    <line x1="753" y1="425" x2="757" y2="425" style="stroke:#000000;stroke-width:2" />
    <line x1="753" y1="425" x2="749" y2="425" style="stroke:#000000;stroke-width:2" />
    <line x1="753" y1="425" x2="753" y2="390" style="stroke:#000000;stroke-width:2" />
    <line x1="753" y1="390" x2="757" y2="390" style="stroke:#000000;stroke-width:2" />
    <line x1="753" y1="390" x2="749" y2="390" style="stroke:#000000;stroke-width:2" />
    <line x1="753" y1="390" x2="753" y2="355" style="stroke:#000000;stroke-width:2" />
    <line x1="753" y1="355" x2="757" y2="355" style="stroke:#000000;stroke-width:2" />
    <line x1="753" y1="355" x2="749" y2="355" style="stroke:#000000;stroke-width:2" />
    <line x1="753" y1="355" x2="753" y2="320" style="stroke:#000000;stroke-width:2" />
    <line x1="753" y1="320" x2="757" y2="320" style="stroke:#000000;stroke-width:2" />
    <line x1="753" y1="320" x2="749" y2="320" style="stroke:#000000;stroke-width:2" />
    <line x1="753" y1="320" x2="753" y2="285" style="stroke:#000000;stroke-width:2" />
    <line x1="753" y1="285" x2="757" y2="285" style="stroke:#000000;stroke-width:2" />
    <line x1="753" y1="285" x2="749" y2="285" style="stroke:#000000;stroke-width:2" />
    <line x1="753" y1="285" x2="753" y2="250" style="stroke:#000000;stroke-width:2" />
</svg>