<svg width="1356" height="672" viewbox = "0 0 1356 672"  xmlns="http://www.w3.org/2000/svg">

<!--
<json>
{
    "glyph": "0331,0331,0332,0332,0211,0211,0211,0332,0332,0332,0332,0332,0332,0332,0332,0332,0330,0330,01101,01102,01103,01104,01105,01106,01107,01110,01111,01112,01113,01114,01115,01116,01117,01120,01121,01122,01123,01124,01125,01126,01127,01130,01131,01132,0337,0337,0331,0332,0332,0332,0332,0332,0332,0336,0330,0333,0336,01141,01142,01143,01144,01145,01146,01147,01150,01151,01152,01153,01154,01155,01156,01157,01160,01161,01162,01163,01164,01165,01166,01167,01170,01171,01172,",
    "unit": 35.04938994813922,
    "x0": 683,
    "y0": 250,
    "x0rel": 0.1426558353055001,
    "y0rel": -2.453680367254602,
    "imgurl": "",
    "imgw": 2,
    "imgleft": -1.5,
    "imgtop": -1
}
</json>
-->
    <line x1="140" y1="215" x2="157" y2="165" style="stroke:#000000;stroke-width:2" />
    <line x1="173" y1="215" x2="157" y2="165" style="stroke:#000000;stroke-width:2" />
    <line x1="167" y1="196" x2="147" y2="196" style="stroke:#000000;stroke-width:2" />
    <line x1="186" y1="215" x2="186" y2="163" style="stroke:#000000;stroke-width:2" />
    <line x1="186" y1="163" x2="199" y2="163" style="stroke:#000000;stroke-width:2" />
    <line x1="186" y1="189" x2="199" y2="189" style="stroke:#000000;stroke-width:2" />
  <path d="M199.15603928960837 162.6208688432878           A13.123159254415887 13.123159254415887 0 0 1 199.15603928960837 188.8671873521196" fill = "none" stroke = "#000000" stroke-width = "2" />
  <path d="M199.15603928960837 188.8671873521196           A13.123159254415887 13.123159254415887 0 0 1 199.15603928960837 215.1135058609514" fill = "none" stroke = "#000000" stroke-width = "2" />
    <line x1="186" y1="215" x2="199" y2="215" style="stroke:#000000;stroke-width:2" />
  <path d="M245.08709668006398 215.1135058609514           A26.246318508831774 26.246318508831774 0 0 1 245.08709668006398 162.62086884328787" fill = "none" stroke = "#000000" stroke-width = "2" />
  <path d="M226.52814688128703 170.30823755334268           A26.246318508831774 26.246318508831774 0 0 1 263.6460464788409 170.30823755334268" fill = "none" stroke = "#000000" stroke-width = "2" />
  <path d="M263.6460464788409 207.42613715089658           A26.246318508831774 26.246318508831774 0 0 1 226.52814688128703 207.42613715089658" fill = "none" stroke = "#000000" stroke-width = "2" />
    <line x1="271" y1="215" x2="271" y2="163" style="stroke:#000000;stroke-width:2" />
  <path d="M271.33341518889574 162.62086884328787           A26.246318508831774 26.246318508831774 0 0 1 297.57973369772753 188.86718735211963" fill = "none" stroke = "#000000" stroke-width = "2" />
  <path d="M297.57973369772753 188.86718735211963           A26.246318508831774 26.246318508831774 0 0 1 271.33341518889574 215.1135058609514" fill = "none" stroke = "#000000" stroke-width = "2" />
    <line x1="311" y1="215" x2="311" y2="163" style="stroke:#000000;stroke-width:2" />
    <line x1="311" y1="215" x2="337" y2="215" style="stroke:#000000;stroke-width:2" />
    <line x1="311" y1="189" x2="324" y2="189" style="stroke:#000000;stroke-width:2" />
    <line x1="311" y1="163" x2="337" y2="163" style="stroke:#000000;stroke-width:2" />
    <line x1="350" y1="215" x2="350" y2="163" style="stroke:#000000;stroke-width:2" />
    <line x1="350" y1="189" x2="363" y2="189" style="stroke:#000000;stroke-width:2" />
    <line x1="350" y1="163" x2="376" y2="163" style="stroke:#000000;stroke-width:2" />
  <path d="M415.6881669874703 215.1135058609513           A26.246318508831774 26.246318508831774 0 0 1 415.6881669874703 162.62086884328778" fill = "none" stroke = "#000000" stroke-width = "2" />
  <path d="M397.1292171886933 170.30823755334265           A26.246318508831774 26.246318508831774 0 0 1 434.2471167862472 170.30823755334256" fill = "none" stroke = "#000000" stroke-width = "2" />
  <path d="M434.24711678624726 207.4261371508965           A26.246318508831774 26.246318508831774 0 0 1 397.12921718869336 207.42613715089644" fill = "none" stroke = "#000000" stroke-width = "2" />
    <line x1="435" y1="215" x2="435" y2="202" style="stroke:#000000;stroke-width:2" />
    <line x1="435" y1="202" x2="422" y2="202" style="stroke:#000000;stroke-width:2" />
    <line x1="475" y1="215" x2="475" y2="163" style="stroke:#000000;stroke-width:2" />
    <line x1="448" y1="215" x2="448" y2="163" style="stroke:#000000;stroke-width:2" />
    <line x1="448" y1="189" x2="475" y2="189" style="stroke:#000000;stroke-width:2" />
    <line x1="514" y1="215" x2="488" y2="215" style="stroke:#000000;stroke-width:2" />
    <line x1="501" y1="215" x2="501" y2="163" style="stroke:#000000;stroke-width:2" />
    <line x1="501" y1="163" x2="488" y2="163" style="stroke:#000000;stroke-width:2" />
    <line x1="501" y1="163" x2="514" y2="163" style="stroke:#000000;stroke-width:2" />
    <line x1="553" y1="189" x2="553" y2="163" style="stroke:#000000;stroke-width:2" />
    <line x1="553" y1="163" x2="567" y2="163" style="stroke:#000000;stroke-width:2" />
    <line x1="553" y1="163" x2="540" y2="163" style="stroke:#000000;stroke-width:2" />
    <line x1="553" y1="189" x2="553" y2="202" style="stroke:#000000;stroke-width:2" />
  <path d="M553.4813391588369 201.99034660653535           A13.123159254415887 13.123159254415887 0 0 1 527.2350206500051 201.9903466065354" fill = "none" stroke = "#000000" stroke-width = "2" />
    <line x1="573" y1="215" x2="573" y2="163" style="stroke:#000000;stroke-width:2" />
    <line x1="573" y1="189" x2="599" y2="163" style="stroke:#000000;stroke-width:2" />
    <line x1="573" y1="189" x2="599" y2="215" style="stroke:#000000;stroke-width:2" />
    <line x1="619" y1="215" x2="619" y2="163" style="stroke:#000000;stroke-width:2" />
    <line x1="619" y1="215" x2="645" y2="215" style="stroke:#000000;stroke-width:2" />
    <line x1="658" y1="215" x2="658" y2="163" style="stroke:#000000;stroke-width:2" />
    <line x1="658" y1="163" x2="675" y2="191" style="stroke:#000000;stroke-width:2" />
    <line x1="675" y1="191" x2="691" y2="163" style="stroke:#000000;stroke-width:2" />
    <line x1="691" y1="163" x2="691" y2="215" style="stroke:#000000;stroke-width:2" />
    <line x1="697" y1="215" x2="697" y2="163" style="stroke:#000000;stroke-width:2" />
    <line x1="697" y1="163" x2="728" y2="215" style="stroke:#000000;stroke-width:2" />
    <line x1="728" y1="215" x2="728" y2="163" style="stroke:#000000;stroke-width:2" />
    <circle cx="761" cy = "189" r = "26.246318508831774" stroke = "#000000" stroke-width = "2" fill = "none" />
    <line x1="800" y1="215" x2="800" y2="163" style="stroke:#000000;stroke-width:2" />
    <circle cx="813" cy = "176" r = "13.123159254415887" stroke = "#000000" stroke-width = "2" fill = "none" />
    <circle cx="866" cy = "189" r = "26.246318508831774" stroke = "#000000" stroke-width = "2" fill = "none" />
    <line x1="879" y1="202" x2="897" y2="221" style="stroke:#000000;stroke-width:2" />
    <line x1="912" y1="215" x2="912" y2="163" style="stroke:#000000;stroke-width:2" />
    <line x1="912" y1="163" x2="925" y2="163" style="stroke:#000000;stroke-width:2" />
    <line x1="912" y1="189" x2="925" y2="189" style="stroke:#000000;stroke-width:2" />
  <path d="M924.6244535862585 162.62086884329128           A13.123159254415887 13.123159254415887 0 0 1 924.6244535862581 188.86718735212307" fill = "none" stroke = "#000000" stroke-width = "2" />
    <line x1="925" y1="189" x2="940" y2="215" style="stroke:#000000;stroke-width:2" />
  <path d="M947.5899822814861 175.74402809770754           A13.123159254415887 13.123159254415887 0 0 1 973.8363007903179 175.74402809770785" fill = "none" stroke = "#000000" stroke-width = "2" />
  <path d="M960.7131415359019 188.86718735212358           A13.123159254415887 13.123159254415887 0 0 1 947.5899822814861 175.74402809770754" fill = "none" stroke = "#000000" stroke-width = "2" />
  <path d="M960.7131415359019 188.86718735212358           A13.123159254415887 13.123159254415887 0 0 1 973.8363007903176 201.99034660653956" fill = "none" stroke = "#000000" stroke-width = "2" />
  <path d="M973.8363007903176 201.99034660653956           A13.123159254415887 13.123159254415887 0 0 1 947.5899822814858 201.99034660653933" fill = "none" stroke = "#000000" stroke-width = "2" />
    <line x1="1013" y1="215" x2="1013" y2="163" style="stroke:#000000;stroke-width:2" />
    <line x1="1013" y1="163" x2="1039" y2="163" style="stroke:#000000;stroke-width:2" />
    <line x1="987" y1="163" x2="1013" y2="163" style="stroke:#000000;stroke-width:2" />
    <line x1="1079" y1="202" x2="1079" y2="176" style="stroke:#000000;stroke-width:2" />
    <line x1="1079" y1="176" x2="1079" y2="163" style="stroke:#000000;stroke-width:2" />
    <line x1="1053" y1="202" x2="1053" y2="189" style="stroke:#000000;stroke-width:2" />
    <line x1="1053" y1="189" x2="1053" y2="176" style="stroke:#000000;stroke-width:2" />
    <line x1="1053" y1="176" x2="1053" y2="163" style="stroke:#000000;stroke-width:2" />
  <path d="M1078.8215748256443 201.9903466065412           A13.123159254415887 13.123159254415887 0 0 1 1052.5752563168126 201.9903466065408" fill = "none" stroke = "#000000" stroke-width = "2" />
    <line x1="1118" y1="215" x2="1138" y2="167" style="stroke:#000000;stroke-width:2" />
    <line x1="1118" y1="215" x2="1098" y2="167" style="stroke:#000000;stroke-width:2" />
    <line x1="1158" y1="215" x2="1147" y2="164" style="stroke:#000000;stroke-width:2" />
    <line x1="1158" y1="215" x2="1163" y2="189" style="stroke:#000000;stroke-width:2" />
    <line x1="1163" y1="189" x2="1168" y2="215" style="stroke:#000000;stroke-width:2" />
    <line x1="1168" y1="215" x2="1178" y2="164" style="stroke:#000000;stroke-width:2" />
    <line x1="1187" y1="215" x2="1218" y2="163" style="stroke:#000000;stroke-width:2" />
    <line x1="1187" y1="163" x2="1218" y2="215" style="stroke:#000000;stroke-width:2" />
    <line x1="1244" y1="215" x2="1244" y2="189" style="stroke:#000000;stroke-width:2" />
    <line x1="1244" y1="189" x2="1229" y2="163" style="stroke:#000000;stroke-width:2" />
    <line x1="1244" y1="189" x2="1259" y2="163" style="stroke:#000000;stroke-width:2" />
    <line x1="1264" y1="215" x2="1294" y2="215" style="stroke:#000000;stroke-width:2" />
    <line x1="1264" y1="163" x2="1294" y2="163" style="stroke:#000000;stroke-width:2" />
    <line x1="1264" y1="215" x2="1294" y2="163" style="stroke:#000000;stroke-width:2" />
    <circle cx="159" cy = "307" r = "13.123159254415887" stroke = "#000000" stroke-width = "2" fill = "none" />
    <line x1="172" y1="307" x2="172" y2="294" style="stroke:#000000;stroke-width:2" />
    <line x1="172" y1="320" x2="172" y2="307" style="stroke:#000000;stroke-width:2" />
    <line x1="179" y1="320" x2="179" y2="268" style="stroke:#000000;stroke-width:2" />
    <circle cx="192" cy = "307" r = "13.123159254415887" stroke = "#000000" stroke-width = "2" fill = "none" />
  <path d="M215.21345417442944 297.6961457424746           A13.123159254415887 13.123159254415887 0 0 1 233.7724039732064 297.6961457424748" fill = "none" stroke = "#000000" stroke-width = "2" />
  <path d="M215.21345417442924 316.25509554125153           A13.123159254415887 13.123159254415887 0 0 1 215.21345417442944 297.6961457424746" fill = "none" stroke = "#000000" stroke-width = "2" />
  <path d="M233.77240397320622 316.2550955412517           A13.123159254415887 13.123159254415887 0 0 1 215.21345417442924 316.25509554125153" fill = "none" stroke = "#000000" stroke-width = "2" />
    <line x1="270" y1="320" x2="270" y2="268" style="stroke:#000000;stroke-width:2" />
    <circle cx="257" cy = "307" r = "13.123159254415887" stroke = "#000000" stroke-width = "2" fill = "none" />
  <path d="M283.54714571868925 306.97562064186366           A13.123159254415887 13.123159254415887 0 0 1 309.79346422752104 306.97562064186377" fill = "none" stroke = "#000000" stroke-width = "2" />
  <path d="M296.67030497310515 320.0987798962796           A13.123159254415887 13.123159254415887 0 0 1 283.54714571868925 306.97562064186366" fill = "none" stroke = "#000000" stroke-width = "2" />
  <path d="M305.9497798724936 316.25509554125216           A13.123159254415887 13.123159254415887 0 0 1 287.39083007371664 316.25509554125216" fill = "none" stroke = "#000000" stroke-width = "2" />
    <line x1="297" y1="307" x2="284" y2="307" style="stroke:#000000;stroke-width:2" />
    <line x1="297" y1="307" x2="310" y2="307" style="stroke:#000000;stroke-width:2" />
    <line x1="329" y1="320" x2="329" y2="294" style="stroke:#000000;stroke-width:2" />
    <line x1="329" y1="294" x2="329" y2="287" style="stroke:#000000;stroke-width:2" />
  <path d="M329.4782031091449 287.2908817602402           A6.561579627207943 6.561579627207943 0 0 1 342.6013623635608 287.29088176024027" fill = "none" stroke = "#000000" stroke-width = "2" />
    <line x1="329" y1="300" x2="336" y2="300" style="stroke:#000000;stroke-width:2" />
    <line x1="329" y1="300" x2="323" y2="300" style="stroke:#000000;stroke-width:2" />
    <circle cx="362" cy = "307" r = "13.123159254415887" stroke = "#000000" stroke-width = "2" fill = "none" />
    <line x1="375" y1="307" x2="375" y2="294" style="stroke:#000000;stroke-width:2" />
    <line x1="375" y1="320" x2="375" y2="307" style="stroke:#000000;stroke-width:2" />
    <line x1="375" y1="333" x2="375" y2="320" style="stroke:#000000;stroke-width:2" />
    <line x1="375" y1="346" x2="375" y2="333" style="stroke:#000000;stroke-width:2" />
  <path d="M375.40926049960007 346.3450984051123           A13.123159254415887 13.123159254415887 0 0 1 349.1629419907683 346.34509840511214" fill = "none" stroke = "#000000" stroke-width = "2" />
    <line x1="382" y1="320" x2="382" y2="268" style="stroke:#000000;stroke-width:2" />
  <path d="M381.9708401268083 306.97562064186474           A13.123159254415887 13.123159254415887 0 0 1 408.2171586356401 306.97562064186485" fill = "none" stroke = "#000000" stroke-width = "2" />
    <line x1="408" y1="307" x2="408" y2="320" style="stroke:#000000;stroke-width:2" />
    <line x1="428" y1="320" x2="428" y2="307" style="stroke:#000000;stroke-width:2" />
    <line x1="428" y1="307" x2="428" y2="300" style="stroke:#000000;stroke-width:2" />
    <circle cx="428" cy = "287" r = "3.2807898136039717" stroke = "#000000" stroke-width = "2" fill = "none" />
    <line x1="454" y1="320" x2="454" y2="307" style="stroke:#000000;stroke-width:2" />
    <line x1="454" y1="333" x2="454" y2="320" style="stroke:#000000;stroke-width:2" />
  <path d="M454.1482160260956 333.2219391506969           A13.123159254415887 13.123159254415887 0 0 1 427.9018975172638 333.22193915069687" fill = "none" stroke = "#000000" stroke-width = "2" />
    <circle cx="454" cy = "294" r = "3.2807898136039717" stroke = "#000000" stroke-width = "2" fill = "none" />
    <line x1="467" y1="320" x2="467" y2="294" style="stroke:#000000;stroke-width:2" />
    <line x1="467" y1="294" x2="467" y2="281" style="stroke:#000000;stroke-width:2" />
    <line x1="467" y1="307" x2="477" y2="298" style="stroke:#000000;stroke-width:2" />
    <line x1="467" y1="307" x2="480" y2="320" style="stroke:#000000;stroke-width:2" />
    <line x1="494" y1="320" x2="496" y2="318" style="stroke:#000000;stroke-width:2" />
    <line x1="494" y1="320" x2="494" y2="294" style="stroke:#000000;stroke-width:2" />
    <line x1="494" y1="294" x2="494" y2="281" style="stroke:#000000;stroke-width:2" />
    <line x1="494" y1="281" x2="489" y2="285" style="stroke:#000000;stroke-width:2" />
    <line x1="507" y1="320" x2="507" y2="294" style="stroke:#000000;stroke-width:2" />
  <path d="M506.6408530437592 306.975620641866           A6.561579627207943 6.561579627207943 0 0 1 519.7640122981751 306.97562064186604" fill = "none" stroke = "#000000" stroke-width = "2" />
  <path d="M519.7640122981751 306.9756206418661           A6.561579627207943 6.561579627207943 0 0 1 532.887171552591 306.97562064186616" fill = "none" stroke = "#000000" stroke-width = "2" />
    <line x1="520" y1="314" x2="520" y2="307" style="stroke:#000000;stroke-width:2" />
    <line x1="520" y1="320" x2="520" y2="314" style="stroke:#000000;stroke-width:2" />
    <line x1="533" y1="320" x2="533" y2="307" style="stroke:#000000;stroke-width:2" />
    <line x1="546" y1="320" x2="546" y2="294" style="stroke:#000000;stroke-width:2" />
  <path d="M546.010330807007 306.9756206418665           A6.561579627207943 6.561579627207943 0 0 1 559.1334900614229 306.97562064186656" fill = "none" stroke = "#000000" stroke-width = "2" />
    <line x1="559" y1="320" x2="559" y2="307" style="stroke:#000000;stroke-width:2" />
    <circle cx="585" cy = "307" r = "13.123159254415887" stroke = "#000000" stroke-width = "2" fill = "none" />
    <line x1="612" y1="320" x2="612" y2="307" style="stroke:#000000;stroke-width:2" />
    <line x1="612" y1="320" x2="612" y2="346" style="stroke:#000000;stroke-width:2" />
    <circle cx="625" cy = "307" r = "13.123159254415887" stroke = "#000000" stroke-width = "2" fill = "none" />
    <line x1="612" y1="307" x2="612" y2="294" style="stroke:#000000;stroke-width:2" />
    <circle cx="664" cy = "307" r = "13.123159254415887" stroke = "#000000" stroke-width = "2" fill = "none" />
    <line x1="677" y1="307" x2="677" y2="294" style="stroke:#000000;stroke-width:2" />
    <line x1="677" y1="333" x2="677" y2="307" style="stroke:#000000;stroke-width:2" />
  <path d="M690.3650826055817 333.22193915069937           A6.561579627207943 6.561579627207943 0 0 1 677.2419233511658 333.22193915069937" fill = "none" stroke = "#000000" stroke-width = "2" />
    <line x1="703" y1="320" x2="703" y2="294" style="stroke:#000000;stroke-width:2" />
    <line x1="703" y1="294" x2="703" y2="287" style="stroke:#000000;stroke-width:2" />
    <line x1="703" y1="294" x2="728" y2="284" style="stroke:#000000;stroke-width:2" />
  <path d="M744.7795618007592 295.7743035649659           A6.561579627207943 6.561579627207943 0 0 1 754.0590367001477 295.774303564966" fill = "none" stroke = "#000000" stroke-width = "2" />
  <path d="M744.7795618007591 305.0537784643544           A6.561579627207943 6.561579627207943 0 0 1 744.7795618007592 295.7743035649659" fill = "none" stroke = "#000000" stroke-width = "2" />
  <path d="M749.4192992504534 306.97562064186815           A6.561579627207943 6.561579627207943 0 0 1 744.7795618007591 305.0537784643544" fill = "none" stroke = "#000000" stroke-width = "2" />
  <path d="M754.0590367001475 318.1769377187704           A6.561579627207943 6.561579627207943 0 0 1 744.7795618007591 318.1769377187703" fill = "none" stroke = "#000000" stroke-width = "2" />
  <path d="M754.0590367001477 308.8974628193819           A6.561579627207943 6.561579627207943 0 0 1 754.0590367001475 318.1769377187704" fill = "none" stroke = "#000000" stroke-width = "2" />
  <path d="M749.4192992504534 306.97562064186815           A6.561579627207943 6.561579627207943 0 0 1 755.9808788776613 313.5372002690761" fill = "none" stroke = "#000000" stroke-width = "2" />
    <line x1="789" y1="320" x2="789" y2="294" style="stroke:#000000;stroke-width:2" />
    <line x1="789" y1="294" x2="789" y2="281" style="stroke:#000000;stroke-width:2" />
    <line x1="789" y1="294" x2="776" y2="294" style="stroke:#000000;stroke-width:2" />
    <line x1="789" y1="294" x2="802" y2="294" style="stroke:#000000;stroke-width:2" />
  <path d="M801.911936268117 320.09877989628393           A6.561579627207943 6.561579627207943 0 0 1 788.7887770137011 320.09877989628393" fill = "none" stroke = "#000000" stroke-width = "2" />
    <line x1="815" y1="307" x2="815" y2="294" style="stroke:#000000;stroke-width:2" />
  <path d="M841.2814140313648 306.97562064186826           A13.123159254415887 13.123159254415887 0 0 1 815.035095522533 306.9756206418682" fill = "none" stroke = "#000000" stroke-width = "2" />
    <line x1="841" y1="307" x2="841" y2="294" style="stroke:#000000;stroke-width:2" />
    <line x1="841" y1="307" x2="841" y2="320" style="stroke:#000000;stroke-width:2" />
    <line x1="861" y1="320" x2="851" y2="296" style="stroke:#000000;stroke-width:2" />
    <line x1="861" y1="320" x2="871" y2="296" style="stroke:#000000;stroke-width:2" />
    <line x1="894" y1="320" x2="884" y2="296" style="stroke:#000000;stroke-width:2" />
    <line x1="894" y1="320" x2="899" y2="308" style="stroke:#000000;stroke-width:2" />
    <line x1="899" y1="308" x2="904" y2="320" style="stroke:#000000;stroke-width:2" />
    <line x1="904" y1="320" x2="914" y2="296" style="stroke:#000000;stroke-width:2" />
    <line x1="924" y1="320" x2="937" y2="297" style="stroke:#000000;stroke-width:2" />
    <line x1="937" y1="320" x2="924" y2="297" style="stroke:#000000;stroke-width:2" />
    <line x1="956" y1="320" x2="966" y2="296" style="stroke:#000000;stroke-width:2" />
    <line x1="956" y1="320" x2="946" y2="296" style="stroke:#000000;stroke-width:2" />
    <line x1="956" y1="320" x2="946" y2="344" style="stroke:#000000;stroke-width:2" />
    <line x1="976" y1="320" x2="1002" y2="294" style="stroke:#000000;stroke-width:2" />
    <line x1="1002" y1="294" x2="976" y2="294" style="stroke:#000000;stroke-width:2" />
    <line x1="976" y1="320" x2="1002" y2="320" style="stroke:#000000;stroke-width:2" />
</svg>